<?xml version="1.0" encoding="UTF-8" standalone="no"?>
<!-- Created with Inkscape (http://www.inkscape.org/) -->

<svg
   version="1.1"
   id="svg9"
   width="580"
   height="420"
   viewBox="0 0 580 420"
   sodipodi:docname="logo.svg"
   inkscape:version="1.1.2 (b8e25be833, 2022-02-05)"
   xmlns:inkscape="http://www.inkscape.org/namespaces/inkscape"
   xmlns:sodipodi="http://sodipodi.sourceforge.net/DTD/sodipodi-0.dtd"
   xmlns="http://www.w3.org/2000/svg"
   xmlns:svg="http://www.w3.org/2000/svg">
  <defs
     id="defs13" />
  <sodipodi:namedview
     id="namedview11"
     pagecolor="#ffffff"
     bordercolor="#666666"
     borderopacity="1.0"
     inkscape:pageshadow="2"
     inkscape:pageopacity="0.0"
     inkscape:pagecheckerboard="0"
     showgrid="false"
     width="615px"
     inkscape:zoom="0.70010728"
     inkscape:cx="712.03373"
     inkscape:cy="439.2184"
     inkscape:window-width="1920"
     inkscape:window-height="1001"
     inkscape:window-x="-9"
     inkscape:window-y="-9"
     inkscape:window-maximized="1"
     inkscape:current-layer="g15" />
  <g
     inkscape:groupmode="layer"
     inkscape:label="Image"
     id="g15">
    <path
       style="fill:#740a64;fill-opacity:0.9;stroke-width:0.8"
       d="m 46.433714,399.10118 c -24.83157,-2.46547 -38.0373396,-8.86836 -41.2773198,-20.01352 -3.3354,-11.47337 3.3251802,-22.3132 16.8107198,-27.35879 9.97365,-3.73161 16.45549,-4.49444 38.0666,-4.4799 29.584133,0.0199 45.858166,2.93452 77.599996,13.89782 l 14,4.83546 8.8,-5.32758 c 19.28961,-11.67806 37.50111,-26.15977 55.60822,-44.21942 17.77338,-17.72679 32.77606,-36.78958 51.59055,-65.55227 6.67514,-10.20463 8.68814,-12.7062 11.17086,-13.88202 4.43326,-2.09961 3.09479,-2.35718 -3.07717,-0.59215 -11.94738,3.41664 -21.52025,4.42762 -41.69246,4.40308 -16.25902,-0.0198 -20.716,-0.2954 -29.09705,-1.79945 -43.67198,-7.83728 -72.1399,-33.40925 -78.12458,-70.1772 -10.4434,-64.16085 54.29748,-127.832138 149.62162,-147.149728 19.79563,-4.01161 43.08989,-6.4309 68.2,-7.08308 l 9.8,-0.25453 v 8.51876 8.51877 l -14.2,0.53673 c -39.85238,1.50633 -73.97318,8.53306 -104.19999,21.458606 -57.14828,24.43766 -89.87182,64.216612 -87.73767,106.654472 0.2434,4.84 1.03701,10.95362 1.76357,13.58581 5.822,21.09189 23.96226,36.62591 50.8029,43.50396 13.69541,3.50952 22.51656,4.48047 40.7712,4.48769 17.48908,0.007 21.37896,-0.45091 39.01741,-4.59237 l 10.61742,-2.49293 8.1201,-10.84608 c 33.91475,-45.3002 74.41659,-91.38254 103.16013,-117.373931 52.65384,-47.612277 89.3244,-68.573377 124.81163,-71.343007 19.68348,-1.53621 31.49221,2.58002 36.73416,12.80463 2.3835,4.64912 3.41486,13.28341 2.38192,19.94089 -4.47432,28.837706 -41.64228,71.715308 -92.66039,106.894638 -21.53491,14.8493 -54.2651,33.01434 -82.58239,45.83267 -12.22932,5.53583 -36.36068,14.9698 -48.96076,19.14085 l -10.16076,3.36354 -18.7582,25.74683 c -25.5736,35.1014 -29.08856,39.6259 -40.74331,52.4455 -31.77523,34.951 -67.71434,60.42061 -99.57696,70.56893 -3.19,1.01603 -5.8,2.09583 -5.8,2.39956 0,0.67961 18.86001,4.27666 30.8,5.87428 12.48107,1.67004 41.88076,3.14081 50.4,2.52136 29.95279,-2.17792 42.88803,-8.42745 85.83401,-41.46984 10.68871,-8.22383 25.71367,-19.68897 33.38879,-25.47809 12.00148,-9.05236 13.89326,-10.77078 13.51526,-12.27682 -0.35465,-1.41303 0.69019,-2.75734 5.41121,-6.96217 13.0287,-11.60413 31.29119,-25.29092 47.67234,-35.72791 l 9.02162,-5.74798 h 18.75855 18.75853 l -39.78016,48.88117 c -21.87909,26.88465 -42.00975,51.63465 -44.7348,55 -4.34017,5.35996 -4.75198,6.15183 -3.32046,6.38489 3.92628,0.63924 17.46425,-5.42937 29.25038,-13.11197 3.80703,-2.48153 21.345,-15.20525 38.97329,-28.27492 17.62829,-13.06967 34.84143,-25.81673 38.25143,-28.32682 l 6.2,-4.56379 v 7.02574 7.02574 l -5.8,5.65997 c -18.91713,18.46042 -49.96624,44.21284 -66.91594,55.50074 -9.05991,6.03358 -23.36186,12.99855 -30.48406,14.84558 -2.86,0.74169 -8.08276,1.37676 -11.60615,1.41124 -5.3614,0.0525 -6.96609,-0.252 -9.83953,-1.86696 -1.88835,-1.06132 -4.22558,-3.20338 -5.19384,-4.76014 -1.56755,-2.52029 -1.7554,-3.88251 -1.71408,-12.43047 0.0418,-8.65862 0.29936,-10.33776 2.62612,-17.12353 3.1868,-9.2939 8.38856,-19.46604 15.04759,-29.42587 2.79394,-4.17885 5.07989,-7.7523 5.07989,-7.941 0,-0.18868 -8.19,6.96741 -18.2,15.90244 -34.01509,30.36225 -53.81484,46.54025 -67.73879,55.34805 -12.49241,7.90228 -28.11954,14.34391 -41.902,17.27236 -15.01138,3.18957 -41.31439,2.97712 -63.23628,-0.51076 -14.18032,-2.25617 -34.43275,-6.8971 -46.53449,-10.66359 l -5.16443,-1.60735 -9.212,3.11134 c -25.45804,8.59841 -48.782818,12.10056 -79.211996,11.89347 -9.02,-0.0614 -17.66,-0.23672 -19.2,-0.38963 z m 57.599996,-18.26292 c 11.11192,-1.14391 28.67841,-3.91269 31.2,-4.91767 0.66,-0.26304 -4.38,-1.29929 -11.2,-2.30279 -6.82,-1.0035 -19.42,-3.1113 -27.999998,-4.68402 -20.827348,-3.81765 -27.041618,-4.50106 -40.779018,-4.48464 -12.39174,0.0148 -20.14033,1.18964 -25.33616,3.84145 -11.69457,5.96857 -5.27108,11.75754 15.31518,13.80231 9.20282,0.91409 45.192713,0.14616 58.799996,-1.25464 z m 298.73271,-79.31617 c 0.42134,-1.09798 0.30427,-1.14747 -0.71441,-0.30204 -1.38819,1.1521 -1.53267,1.6152 -0.5039,1.6152 0.39293,0 0.94117,-0.59092 1.21831,-1.31316 z M 367.2337,192.45027 C 409.30967,173.18921 452.83801,146.99 481.68955,123.5606 492.69182,114.62603 513.88704,93.976787 522.26,84.035239 c 6.62101,-7.861391 15.80635,-21.352021 19.46561,-28.589421 4.65104,-9.198926 4.69259,-16.054006 0.13016,-21.476136 l -2.13585,-2.53831 -6.44311,0.52991 c -32.62784,2.68342 -71.06008,26.406456 -114.06869,70.411098 -13.54273,13.85636 -19.96106,21.2308 -36.07066,41.44396 -19.0404,23.89053 -45.50376,59.29744 -45.50376,60.88222 0,0.55283 17.0286,-6.49349 29.6,-12.24829 z m 126.14984,26.27857 c -4.62193,-0.69063 -7.27813,-2.30668 -9.42969,-5.73706 -2.517,-4.01305 -1.88163,-12.65034 1.31038,-17.8133 3.51188,-5.68032 8.80858,-8.74444 15.10674,-8.73916 9.02684,0.007 13.42076,4.67034 13.51172,14.33845 0.11372,12.08831 -8.60992,19.72759 -20.49915,17.95107 z"
       id="path99" />
  </g>
</svg>
