<?xml version="1.0" encoding="UTF-8" standalone="no"?>
<!-- Generator: Adobe Illustrator 22.1.0, SVG Export Plug-In . SVG Version: 6.00 Build 0)  -->

<svg
   version="1.1"
   id="图层_1"
   x="0px"
   y="0px"
   viewBox="0 0 272.1 340.2"
   style="enable-background:new 0 0 272.1 340.2;"
   xml:space="preserve"
   sodipodi:docname="nju.svg"
   inkscape:version="1.1.2 (b8e25be833, 2022-02-05)"
   xmlns:inkscape="http://www.inkscape.org/namespaces/inkscape"
   xmlns:sodipodi="http://sodipodi.sourceforge.net/DTD/sodipodi-0.dtd"
   xmlns="http://www.w3.org/2000/svg"
   xmlns:svg="http://www.w3.org/2000/svg"><defs
   id="defs157" /><sodipodi:namedview
   id="namedview155"
   pagecolor="#ffffff"
   bordercolor="#666666"
   borderopacity="1.0"
   inkscape:pageshadow="2"
   inkscape:pageopacity="0.0"
   inkscape:pagecheckerboard="0"
   showgrid="false"
   inkscape:zoom="2.3015873"
   inkscape:cx="50.617241"
   inkscape:cy="170.1"
   inkscape:window-width="1920"
   inkscape:window-height="1001"
   inkscape:window-x="-9"
   inkscape:window-y="-9"
   inkscape:window-maximized="1"
   inkscape:current-layer="g140" />
<style
   type="text/css"
   id="style84">
	.st0{fill-rule:evenodd;clip-rule:evenodd;fill:#040000;}
	.st1{fill:#040000;}
</style>
<g
   id="g140">
	<path
   class="st0"
   d="M1.3,2.1c17,9.9,39.4,16.9,66.3,17.2c27.5,0.3,50.8-5.1,67.7-15.7c17,10.6,40.6,16.1,67.8,15.7   c26.3-0.3,49.5-7.2,66.3-17c0.3,39.5-0.6,77.2-0.6,116.6c0,39.1,2.1,79.6-7.9,109.5c-4.9,14.7-12.2,26.9-20.5,38.5   c-8.1,11.4-18.2,21.4-29.1,29.7c-11.3,8.6-24.3,14.7-37.6,21.4c-11.4,5.7-22.8,11.6-33.8,17.6c-1.5,0.9-3.4,1.4-4.5,2.9   c-6-4-12.5-7.2-18.9-10.6c-6.5-3.3-13-6.7-19.5-10.1c-6.7-3.4-13.4-6.4-19.8-9.7c-6.4-3.4-12.1-7.3-17.8-11.6   c-22.3-17-39.4-39-49.6-68.3c-5.2-15.1-6.7-32.5-7.6-51.2c-0.9-18.5-0.4-38.2-0.4-57.4c0-39.1-0.6-77.5-0.6-116.9   C1.1,2.3,1.1,2.1,1.3,2.1z M128.5,16.2c-23.4,10.3-60.3,13.3-90.2,7.3C28.9,21.6,20.4,19,13,15.6c-1-0.5-2.1-1.3-3.3-1.2   c-0.3,36.4,0.6,74.1,0.6,109.1c0,18.2-0.9,36.8-0.2,54.2c0.8,17.3,2.7,33.7,7.5,47.7c4.7,13.8,10.9,25.7,18.7,36.6   c11.6,16.2,25.6,29.7,43.4,39.3c6,3.2,12.3,6,18.7,9c12.5,5.8,24.9,11.9,37.3,18c12.3-6.1,24.9-12,37.2-18   c6.3-3.1,12.7-5.7,18.6-8.9c11.8-6.3,21.9-14.7,30.8-24.2c13.4-14.1,24.3-31.6,30.9-51.9c9.3-28.6,7.3-64.8,7.3-101.4   c0-36.9,0.1-73.2,0.4-109.5c-1.1,0-2.2,0.7-3.3,1.2c-7.7,3.4-16,6.2-25.2,8c-21.7,4.2-48.4,3.6-68.8-0.9   c-10.5-2.3-19.9-5.8-28.1-10C133.6,14.1,131.1,15,128.5,16.2z"
   id="path86"
   style="fill:#ffffff" />
	<path
   class="st0"
   d="M138.2,27.6c11.5,1.3,20.2,7.3,25.4,15.8c0.7,1.1,1.8,2.9,1.7,3.8c-0.2,0.9-0.9,1.7-1.7,1.6   c-1.1-0.1-1.5-1.6-2.3-3c-4.4-7.7-11.5-13-21.7-14.8c0.5,2.3,1.5,4.6,2.4,7c0.9,2.4,1.8,4.9,2.6,7.2c0.4,0.4-0.1,1,0,1.6   c1.8-0.1,3.9-0.1,3.6,2c-0.4,2.6-8.3,0.6-11.2,1.3c-0.3,2-0.1,4.7-0.1,7c1.6,1,9.2-0.8,10.7,0.3c0.5,0.3,0.6,1.2,0.6,1.7   c-0.4,2.9-8.1,0.5-11.2,1.3c-0.5,2.4,0.7,5.7-1.7,5.9c-2.3,0.1-1.6-3-1.7-5.8c-2.9-1-10.7,1.5-11.3-1.3c-0.8-3.9,8.4-1.1,11.2-2.2   c0.3-1.9,0.3-4.9,0-6.9c-2.6-1-10.6,1.3-11.2-1.3c-0.4-2,1.6-2.3,3.5-2.1c0.4-0.4-0.2-0.9,0-1.4c1.9-4.6,3.4-9.6,5.3-14.2   c-12.3,1.7-20.1,9.1-23.9,19.6c1.3-0.1,3.4-0.8,6-1.3c2.8-0.5,8.5-1.8,6.9,2.2c-2.3,0.7-4.9,0.7-7.3,1.2c-2.3,0.5-4.5,1.3-6.4,2   c-0.4,0.7-0.5,1.7-0.6,2.7c2.1-0.3,4.3-1.2,7-1.7c2-0.3,7.9-1.8,7.3,1.4c-0.3,1.4-2,1.2-3.3,1.3c-3.8,0.2-8.6,1.5-11.1,2.8   c-0.1,0.5,0,1.7,0.2,2.3c2.3-0.6,4-1.1,7-1.6c1.9-0.2,6.3-1.5,6.8,0.6c0.6,3-4.6,2.1-7.2,2.6c-2.7,0.5-4.4,1.3-6,1.8   c0.6,1.4,0.6,3.2-0.7,3.5c-2.9,0.6-3.2-6.1-3.3-8.9c-0.1-4.2,0.5-7.9,1.3-10.8c3.8-13,13.9-21.3,28.7-23.5c1.1-1.6,1.1-4.7,3.1-4.5   C137.3,23.2,137.2,26.3,138.2,27.6z M137.3,34.4c-0.5-1.2-1-3.9-2.3-3.7c-2.4,5-4,10.8-6.2,16.2c1.2,0.1,3.5-0.1,4.7,0   c-0.9-4.8,4.6-5.1,3.5,0c1.2,0,3.6,0,4.9,0C140.4,43.2,138.7,38.4,137.3,34.4z"
   id="path88"
   style="fill:#ffffff" />
	<path
   class="st0"
   d="M67.7,40.1c0.7,0.6-0.2,1.4,0.1,2c2.1-0.4,4.7,1.2,4.9,2.3c0.3,1.4-1.3,3-0.9,4.9c3.5,2.2,4.4,7.1,8.4,8.9   c1.7,3.3,2.9,8.2,2.1,12.7c-0.6,3.4-4,3.8-3.3,8.3c0.3,1.9,1.5,5.8,2.9,6.5c0.9,0.4,2.1-0.1,3,0.6c0.7,0.9,0.4,2.8-0.2,3.6   c-2.8,0.5-3.8,3.4-7.2,2.3c-1.3-0.5-3.5-1.9-4.2-3c-0.4-0.7-0.4-1.7-0.7-2.4c-0.7-1.6-2-2.6-2.7-3.8c-2.1,0.6-8.5-0.5-7.4,2.9   c0.5,1.5,5.5,0.7,3.9,4.6c-0.6,1.3-4.9,3.2-6.6,3.6c-0.6,0.1-1.6,0.2-2,0.1c-0.5-0.1-1-0.6-1.7-0.7c-1.4-0.3-3.2,0.3-4.7,0   c-0.9-0.2-3.4-1.9-4.3-2.7c-0.6-0.5-1.8-2-2-2.6c-0.7-1.6-0.2-2.9-1.9-3.6c-0.7-0.3-1.7-0.2-2.5-0.4c-1.5-0.4-3.2-1.6-4.4-0.7   c-1.6,1.7,0.9,2.5,1.7,4c0.8,1.4,0.3,2.5,0.5,4.6c-0.5,0.7-1.6,1.9-2.9,2.2c-1.7,0.3-4.1-1-6.5-1.6c-1.6-0.4-3.9-0.4-4.3-2   c-0.2-1,0.8-1.6,1-2.5c0.3-1.1-0.3-2,0.4-3c-1.1-1.7-0.6-4.3-0.7-7.3c-0.1-3.3-0.1-5.5,0.7-7.9c0.3-0.9,0.3-1.8,0.6-2.3   c0.4-1,3.4-3.4,4.6-4c2.7-1.5,7.2-2.7,12-2c1,0.1,1.9,1,2.9,1.1c1.8,0.3,4.3-0.2,6.2,0c0.6-0.3,1.1-0.7,1.4-1.3   c0.2-3.1-1.6-4.3-2.4-6.5c0.4-3.1-0.5-6.7,0.6-9.7c0.3-0.8,1.7-3.2,2.5-4.1c0.7-0.8,2.2-2,3.1-2.2c1.6-0.3,4.4,0.6,6,1.2   C64.4,39.6,66.4,39.6,67.7,40.1z M59.2,46.6c1.4,0.3,2-1.4,2.6-2.3c-0.4-0.7-0.2-2-1.2-2C60.8,44.3,59.8,45.2,59.2,46.6z M53.9,46   c0.2,0.2,0.6,0.2,1,0.2c0.4-0.9,0.5-2,1-2.7C54.7,43,53.8,45,53.9,46z M63,46.4c-1.3,1-3.8,2-3,4.1c0.1,0,0.3,0,0.3,0.1   c1.6-0.5,2.1-2.2,3.3-3.3c1-0.9,2.9-1.4,2.7-3.4C64.6,43.5,64,45.6,63,46.4z M63,53.1c0,0.1,0.3,0.3,0.3,0.4   c0.5,0.3,0.9-0.3,1.5-0.4c1.2-0.1,2,0.6,2.7,0.6c0.7-0.7,0.1-1.9-0.7-2C65.9,53.3,62.5,50.5,63,53.1z M72.1,51.7   c-0.7-0.1-1,0.7-1,1.3c0.1,1,1.9,2.1,2.9,2C73.7,54.4,72.8,51.8,72.1,51.7z M59.6,53.9c-1.2,0.5-1.8,1.5-2.1,2.8c1,0.4,1.1-1,2-1.1   c1,0.5,1,2,2,2.4c0.3,0.4,1.5-0.2,1.6,0.4c0,0.8-1.2,0.8-2,1.2c-0.9,0.4-2.4,1.7-3.7,2.5c-2.3,1.3-5.3,3-1.9,4.5   c0.4-0.3,0-1,0.2-1.4c0.3-0.7,3.1-2.7,3.4-2.7c0.6-0.1,1.2,0.3,1.8,0.2c1.5-0.2,1.8-1.6,3.1-2.2c0.8,0.2,1.7,0.3,2.8,0.3   c1.3,0.5,0.6,2.9,2.1,3.2c0.7-1,0.2-2.3,1-3.2c-0.1-0.9-1-1.2-0.9-2.3c0.2-0.6,0.9-0.7,1.4-0.9c1.4,1,1.1,3.6,2.4,4.6   c1.2-0.7,1.5-3.3,0.7-4.6c-0.6-1-2.6-1.4-3-2.2c-3.3,0-5.9,0.8-8.5,1.6C61.1,56.3,60.6,54.8,59.6,53.9z M76.1,63.1   c1.1-0.6,0.5-2.8-0.7-2.9C74.9,61,74.9,63,76.1,63.1z M62.6,64.3c0.3,0.8,1.5,0.6,1.7,1.4c-0.4,1.6,0.9,2.4,1.2,3.8   c-0.9,1.2-2.2,0.1-2.6-0.7c-0.6,0.1-1,0.4-1,1.1c3.3,0.2,1.5,4-0.6,4.7c-0.6,0.3-1.5,0-2.2,0.2c-0.8,0.2-1.5,1.1-2.4,1.4   c-1.4,0.5-2.6,0.1-3.4,0.7c-0.4,1.7-0.2,3.8,1,3.7c1.2-0.1,1.2-2.5,2.4-2.9c1.8,0.3,1.6-1.1,2.6-1.4c0.5-0.2,1.1,0.2,1.8,0   c2-0.6,2.5-3.1,3.7-4.6c3.2,0.4,4-2.4,4.1-4.7c-1.8,0.3-4,0.6-4.3-1c-0.2-1.1,0.9-1.6,1.2-2.7C65.1,61.9,62.9,63,62.6,64.3z    M36,64.8c-0.6,0-0.5-0.8-1.3-0.6c0.1,1.1-0.9,1.1-1.2,1.7c0.2,0.8,1.2,0.8,1.4,1.5c2.3-0.1,2.9-1.7,4.8-2   C39.5,62.7,37.5,63.9,36,64.8z M43,63.8c-0.5,0.8,0.1,2.2,0.8,2.6C45.2,65.8,44.8,63.5,43,63.8z M50.5,69.6   c0.6-0.7,0.3-2.6-0.7-2.6C49.3,67.6,49.1,69.9,50.5,69.6z M27.4,71.1c0.9,0.5,3,0.7,3.7-0.2c-0.5-1-0.5-1.8-0.4-2.7   C29.3,68.8,27.9,69.5,27.4,71.1z M51.2,71.8c1.2,0.2,3.5,0.5,3.8-0.7C54.4,69.6,51,69.7,51.2,71.8z M35,74.5   c-0.6,0.1-0.4-0.8-1-0.7c-0.8,0-0.8,0.9-1.6,1c-0.3-0.1-0.5-0.3-1-0.3c-0.3,0.3-0.8,0.4-0.7,1.1c0.7-0.3,1-0.2,1.6,0.2   c0.2-0.3,0.2-0.8,0.7-0.8c-0.1,2.1-1.4,4.3-3.9,4.5c-0.2,1.1-1,1.7-1.7,2.3c-0.6,2.6,0.2,5.1,2.7,5.1c0.2-0.5,0.1-1.2,0.2-1.9   c-0.7-0.7-1.4-1.4-1.1-3.1c0.4-0.3,0.9-0.6,1.7-0.6c1.1-1,2-2.2,2.7-3.7c-0.5-1.6,1.2-2.7,1.9-1.4c0,0.4-0.5,1.2,0.3,1.1   c0.6-0.2,0-0.6,0-1c0.7-0.9,2.3-1,2.7-2.2C37.3,72.4,36.2,74,35,74.5z M28.1,77.1c0.8-0.7,1.1-2.2,0.6-3.3   C27.2,73.8,27,76.6,28.1,77.1z M46.5,77.5c0.1,0.5,1.2,0.3,1.6,0.2c0-0.2,0.1-0.3,0.2-0.4c-0.2-0.3-0.6-0.6-1-0.7   C47.3,77.2,46.4,76.9,46.5,77.5z M58.7,79.2c-0.6,0.3-1.1,0.4-1.4,1c-0.2,1,0.4,2.7-0.5,3c-1.4-1-2.4-0.2-3.3,0.7   c-0.7-0.1-0.9-0.8-2-0.6c-0.1,0.5-0.5,2.2,0.3,2.3c0.8-0.2-0.4-1.5,0.6-1.5c0.3,0.7,0.7,1.1,1.1,1.6c-0.1,1.1-0.4,3.2,0.2,4   c1.7-0.5,0.1-4.3,2.2-4.5c0.7,0.4,0.5,1.7,0.6,2.7c0.6,0.3,1.4,1.2,2.4,1.3c1.2,0.1,3.3-0.3,3.7-1.1c-0.7-0.6-2-0.6-2.6-1.3   c-0.2-0.2-0.2-0.7-0.2-1.1c-1.4-1-2.1-3.3-1.4-5.5c0.2-0.7,1.6-1.7,0.4-2.5C58.6,78.2,58.7,78.8,58.7,79.2z M32,87.6   c0,0.1,0,0.3,0,0.4c1.3-0.1,1.6,1.4,2.6,1C34.3,88,33,87.3,32,87.6z"
   id="path90"
   style="fill:#ffffff" />
	<path
   class="st0"
   d="M237.2,83.4c-1.4-0.9-3.2,0.4-4.6,0.7c-1.7,0.4-3.3,0.4-4,1.9c-0.3,0.7-0.2,1.5-0.4,2.1   c-1.2,2.8-3.9,3.5-6,5.3c-1.4,0.3-3.1-0.3-4.9,0c-1.2,0.2-1.7,1-3.6,0.6c-2.7-0.5-6.3-2.2-6.9-3.7c-1.1-2.9,2-3.3,3.9-4.1   c0.5-2.9-1.6-2.4-4-2.7c-1.2-0.2-2.5-0.6-3.2-0.5c-0.6,0.2-2.4,2.4-3,3.8c-0.3,0.7-0.3,1.6-0.6,2.3c-0.9,1.7-4.2,3.5-6,3.4   c-2.4-0.1-2.8-2.2-5.5-2.5c-0.6-1.2-0.8-2.9,0-3.6c0.7-0.6,2.5-0.3,3.3-0.9c1-0.7,3.2-6.4,2.4-9.2c-0.5-1.8-2.8-3.3-3.2-4.7   c-0.1-0.5-0.2-1.7-0.2-2.5c0-3.5,0.1-8.2,2.2-10.7c0.9-1.1,2.4-1.6,3.5-2.7c1.9-2.1,2.2-5.4,5-6.1c-0.1-2-0.6-3.4-1-5.1   c1.1-1.3,2.2-2.6,4.9-2.3c0.5-0.6-0.6-1.4,0.1-2c1.1-0.4,3.2-0.5,4,0.2c1.5-0.6,3.2-0.9,4.9-1.2c3-0.5,4.6,2.5,5.7,4.5   c0.8,1.4,1.5,2.2,1.7,4.4c0.1,1,0,2.3,0,3.6c0,1.1,0.1,2.5,0,3.3c-0.5,2.8-4.6,6-1,7.9c1.9-0.2,4.1,0.4,6.1,0   c1.1-0.2,2.1-1,2.7-1.1c2.2-0.4,4.8-0.2,6.5,0c4.2,0.6,7.5,3.3,10.2,5.7c0.1,1.7,1.3,3.1,1.6,5c0.4,3,0.3,7.7-0.1,10.6   c-0.2,1.5-0.8,2.9-0.3,5c0.2,1,1.1,1.5,1,2.3c-0.1,1.9-2.5,1.9-4.6,2.4c-3.6,1-7.4,2.8-9-0.8c0.1-2.1-0.2-3.2,0.6-4.6   C236.2,85.9,238.4,85.4,237.2,83.4z M214.1,46.6c0.1-0.9-1-1.1-1.3-2c-0.3-0.8,0.3-1.8-0.5-2.5C210.6,43.5,212.1,46.9,214.1,46.6z    M218.2,46.2c0.5,0.1,0.9-0.1,1.1-0.3c-0.2-1.3-0.7-2.2-1.8-2.6C217.3,44.1,218.2,45.1,218.2,46.2z M206.9,44.1   c0.1,2.4,2.2,2.6,3.5,3.9c1,1.1,1.3,2.5,2.6,2.7c1.5-1.8-1.3-3.8-2.8-4.4C209.4,45.3,208.6,43.6,206.9,44.1z M202.2,52.7   c0-0.3-0.5-1.1-1.1-1c-0.6,0.1-1.8,3-1.8,3.3C200.4,55.1,202.2,53.7,202.2,52.7z M208.2,52.3c-0.7,0.1-1.4-0.7-2-0.6   c-0.6,0.2-1.4,1.8-0.3,2c0.6-0.4,3-0.9,3.9,0c0.9-0.6,0.5-1.5-0.3-2C208.8,51.7,208.9,52.2,208.2,52.3z M213.8,53.9   c-1.4,0.6-1.5,2.6-2.9,3.3c-2.4-1-5.1-1.6-8.4-1.6c-0.4,1-2.8,1.4-3.1,2.7c-0.4,1.4,0,3.2,0.7,4.1c1.7-0.7,1.9-6.8,4.2-3.4   c-0.2,0.8-0.9,1.3-1,2.2c1,0.6,0.4,2,0.9,3c1.8,0,1-2.5,2.2-3c0.9-0.2,2.1-0.2,3-0.5c1.4,1,2.4,2.8,4.8,1.9   c1.3,1.3,3.7,1.8,3.5,4.1c1.1,0,1.8-1.2,1.7-1.8c-0.1-1.4-3-2.5-4.4-3.3c-0.8-0.5-1.5-1.2-2.3-1.6c-1-0.5-2.3-0.4-2.4-1.4   c0.1-0.5,1-0.2,1.4-0.2c1.1-0.5,1.1-2.1,2.2-2.6c0.7,0.1,1.1,1.4,1.8,1.1C215.7,55.7,214.8,54.4,213.8,53.9z M196.5,62.3   c1,1.8,2.1-0.8,1.4-2.1C196.7,60.2,196.6,61.3,196.5,62.3z M207.2,63.3c0.4,1,1.2,1.6,1.2,2.8c-0.6,1.6-3,0.9-4.4,1   c0.3,2,0.7,5.1,4.1,4.5c1.1,1.7,2,3.6,3.8,4.7c2.5-1,2.3,1.5,4.4,1.4c1.3,0.4,1.2,2.8,2.4,2.9c1.4,0.1,1.5-2.5,1-3.9   c-1.2-0.5-2.3-0.1-3.6-0.6c-0.6-0.2-1.1-1.1-1.7-1.3c-1-0.3-2,0.1-2.9-0.3c-1.2-0.5-2.2-2.3-2.2-3.9c0.3-0.7,1.6-0.3,1.8-1.2   c-0.1-0.5-0.4-0.7-0.9-0.8c-0.5,0.8-1.9,2-2.7,0.6c0.6-1.2,1.5-1.9,1.3-3.9c0.4-0.5,1.4-0.3,1.6-1.1C210.4,62.9,208,62,207.2,63.3z    M233.3,65.3c1.9,0.4,2.7,2,4.9,2.1c0.2-0.7,1.4-0.7,1.5-1.5c-0.4-0.6-1.4-0.6-1.3-1.7c-0.9-0.2-0.6,0.7-1.4,0.6   C235.6,63.7,233.9,62.9,233.3,65.3z M229.4,66.3c0.6-0.5,1.3-1.5,0.9-2.6C228.4,63.5,227.9,65.9,229.4,66.3z M223.1,67.1   c-0.6,0.4-1.1,1.9-0.4,2.6C224.1,70,224.2,67.2,223.1,67.1z M242,71.1c0.9,0.6,2.6,0.4,3.8,0.1c-0.4-1.7-1.8-2.4-3.3-3   C242.6,69.1,242.5,70.1,242,71.1z M218.4,71.3c0.5,0.8,2.6,0.7,3.6,0.4C222.3,69.6,218.5,69.5,218.4,71.3z M234.7,74.2   c0.7,0.9,2,1.2,2.7,2c-0.1,0.3-0.3,0.7,0,1c0.9-0.1,0.4-0.7,0.3-1.3c2.2-1.6,1.9,2.2,2.8,3.6c0.6,0.9,1.4,1,1.8,1.7   c0.5,0.1,1.1,0.2,1.6,0.3c1.2,2.2-2,3.2-0.7,5.3c3.2,0.4,3.7-5.3,1.3-6.2c0-0.5-0.2-0.7-0.3-1c-2.4-0.3-4.1-2.8-3.9-4.7   c0.5,1.1,1.4,0.2,2.3,0.7c-0.1-0.6-0.5-0.9-1-1.1c-0.4,0-0.6,0.3-1,0.3c-0.4-0.3-0.6-0.8-1.3-1c-0.6,0-0.5,0.8-1.3,0.7   C237.1,73.7,235.6,72.5,234.7,74.2z M245.3,77c0.8-0.8,0.5-3.1-0.7-3.2C244,74.7,244.2,76.7,245.3,77z M225.1,77.5   c0.3,0.3,0.9,0.3,1.6,0.3c0-0.2,0-0.3,0.2-0.5C226.3,77,225.2,76.1,225.1,77.5z M214.9,80.6c-0.3,1.4,0,2.5-0.2,4   c-0.7,0.7-1.5,1.2-1.4,2.4c-0.7,0.7-2.3,0.6-2.7,1.6c1.8,1,5,1.1,6.2-0.5c0.2-1-0.2-2.6,0.9-2.7c1.8,0.4,0.2,4.1,2,4.5   c0.5-0.9,0.3-3.2,0-4c0.7-0.4,0.7-1.4,1.6-1.6c0.1,0.5-0.3,1.5,0.3,1.5c0.6-0.3,0.5-1.8,0.2-2.3c-1.2-0.3-1.2,0.6-2.2,0.6   c-0.5-1.4-2-1.5-3.3-0.7c-0.5-0.9-0.2-1.8-0.3-3.1c-1.1-0.4-1.4-1.5-1.8-2.2C213.7,79.1,214.6,79.9,214.9,80.6z M238.7,89.1   c1-0.3,1.8-0.9,2.5-1.4C240.4,87.1,238.7,87.9,238.7,89.1z"
   id="path92"
   style="fill:#ffffff" />
	<path
   class="st0"
   d="M163.5,51.2c0.9-0.1,1.1-1.1,2.3-1c1.8,0.1,2.2,5,2.4,7.4c0.3,4.3-0.1,15.7-4.3,11.9c-0.1-0.9,0.1-1.6,0.3-2.2   c-2-1.2-6.1-2.1-9.6-2.4c-1.8-0.1-4.3,0.1-3.6-2.3c0.6-1.9,5.1-0.7,6.9-0.5c2.8,0.5,4.5,1,6.7,1.6c0.5-0.4,0.2-1.5,0.4-2.2   c-1.7-1.3-7.3-2.7-11-3c-1.8-0.1-3.6,0.1-3.6-1.7c0-0.8,0.6-1.1,1.2-1.6c5.2,0.1,9.3,1.1,13.2,2.4c1.1-3.6-3.7-4.1-6.3-4.7   c-2.7-0.6-5.4-0.7-7.4-1c-1.2-0.6-1.1-3,0.7-3C155,48.9,161.3,50.2,163.5,51.2z"
   id="path94"
   style="fill:#ffffff" />
	<path
   class="st0"
   d="M141.7,91.9c-3.2-4.2,7-3.7,8.3-5.9c-1.4-0.7-3.4-1.1-5.3-1.3c-1.9-0.3-3.9-0.5-5.7-0.5   c0.1,2.9,1.4,7.8-1.7,8.6c-2.2,0.6-8.9-0.1-9.2-1.6c-0.7-3.5,5.1-1.2,7.7-1.6c0.7-1.5,0.1-4.1-0.4-5.5c-5.1-0.4-10.1,0.6-14.3,1.5   c1.3,2,5,1.5,5.3,3.4c0.7,4.3-6.7-0.1-7.7-0.7c-4-2.3-7-5-9.9-8.9c-1.1-1.5-3.5-4.4-3.3-6c0.2-1.5,3.5-2.4,5.7-3   c12.9-3.5,27.8-4.8,42.1-1.9c1.9,0.4,4.2,1.1,6.4,1.9c1.9,0.6,5.4,1.4,5.6,2.7c0.3,1.8-3,6-3.8,7c-3.3,4.4-6.6,7.1-11.7,9.4   C147.5,90.8,144.8,92,141.7,91.9z M109.4,74.5c1.9,3.7,4.7,6.5,7.8,9c2.1-0.7,4.3-1.4,6.8-1.7c-1-0.9-2.2-1.4-3.5-2.4   c-1-0.7-2.8-1.8-2.7-3.3c0.1-1.6,3.5-2.4,5.7-2.9c7.5-1.7,16.4-1.5,23.5,0.1c2.2,0.5,6,1.1,6,2.9c0,1-1.7,2.5-2.6,3.1   c-1.2,1-2.6,1.1-3.4,2.4c2.7,0.2,4.7,1,6.9,1.7c3.2-2.3,5.7-5.3,7.4-9C147.6,68.8,123.2,69.2,109.4,74.5z M122.9,77   c5.6,4.9,19.2,4.9,24.8,0C141,74.8,129.5,74.8,122.9,77z"
   id="path96"
   style="fill:#ffffff" />
	<path
   class="st1"
   d="M40,176.1c0-0.3-0.1-0.7-0.3-1.3c-0.2-0.6-0.3-1-0.5-1.1c-0.2-0.4-0.7-0.6-1.4-0.7c-0.7-0.1-1.5-0.2-2.6-0.2   H20v-1.3l17-12.6H26.3c-1.2,0-2.1,0.1-2.7,0.2c-0.7,0.1-1.1,0.3-1.4,0.7c-0.2,0.2-0.4,0.7-0.6,1.4c-0.2,0.7-0.3,1.1-0.3,1.4h-1   v-8.5h1c0.1,0.3,0.1,0.7,0.3,1.3c0.2,0.6,0.3,1,0.4,1.2c0.3,0.3,0.7,0.6,1.2,0.7c0.6,0.1,1.5,0.2,2.9,0.2h10.2   c0.4,0,0.9-0.1,1.3-0.3c0.5-0.2,0.8-0.3,1.1-0.6c0.3-0.4,0.6-0.9,0.8-1.4c0.2-0.6,0.3-1.1,0.4-1.5h1v6l-15.9,11.7h9.9   c1.2,0,2.2,0,2.8-0.2c0.7-0.1,1.1-0.4,1.3-0.7c0.2-0.3,0.4-0.7,0.5-1.3c0.2-0.6,0.3-1.1,0.3-1.4h1v8.5H40z"
   id="path98"
   style="fill:#ffffff" />
	<path
   class="st1"
   d="M22,199.8l-0.9-8.6l1-0.1c0.1,0.7,0.3,1.4,0.5,1.9c0.2,0.5,0.4,0.7,0.6,0.7c0.1,0,0.2,0,0.3-0.1   c0.1,0,0.2-0.1,0.3-0.1l4.5-2.2l-0.7-7.3c-0.7-0.2-1.3-0.4-1.8-0.5c-0.5-0.1-1-0.3-1.4-0.3c-0.5-0.1-0.8-0.1-1.1-0.2   c-0.3,0-0.5,0-0.6,0c-0.4,0.1-0.6,0.3-0.8,1c-0.1,0.6-0.2,1.3-0.2,2.1l-1,0.1l-0.8-7.8l1-0.1c0.1,0.2,0.1,0.6,0.3,1   c0.1,0.3,0.3,0.6,0.5,0.9c0.3,0.4,0.6,0.6,0.9,0.9c0.3,0.2,0.7,0.3,1.3,0.5c2.7,0.8,5.7,1.6,9.1,2.6c3.4,0.9,6.3,1.7,9,2.5l0.1,1.1   l-17.2,8.7c-0.3,0.1-0.7,0.3-0.9,0.6c-0.2,0.2-0.4,0.5-0.6,0.9c-0.1,0.2-0.2,0.5-0.2,0.9c-0.1,0.4-0.1,0.7-0.1,0.9L22,199.8z    M29.5,190.7l7.7-3.9l-8.3-2.3L29.5,190.7z"
   id="path100"
   style="fill:#ffffff" />
	<path
   class="st1"
   d="M46.7,221.6c-0.1-0.2-0.2-0.7-0.5-1.2c-0.3-0.5-0.5-0.9-0.7-1.1c-0.3-0.3-0.8-0.4-1.5-0.4   c-0.7,0-1.6,0.2-2.6,0.4l-14.9,3.3l-0.3-1.2l13.9-16l-10.5,2.3c-1.2,0.2-2,0.5-2.6,0.8c-0.6,0.3-1,0.6-1.2,1   c-0.2,0.3-0.3,0.8-0.3,1.5c-0.1,0.8-0.1,1.2,0,1.4l-1,0.3l-1.9-8.3l1-0.2c0.1,0.3,0.3,0.7,0.6,1.2c0.3,0.6,0.5,0.9,0.7,1   c0.3,0.3,0.8,0.4,1.4,0.4c0.6,0,1.5-0.1,2.9-0.4l10-2.2c0.5-0.1,0.9-0.3,1.3-0.5c0.4-0.3,0.7-0.6,0.8-0.8c0.3-0.4,0.4-1,0.5-1.6   c0.1-0.7,0.1-1.2,0-1.5l1-0.2l1.3,5.8l-13,14.9l9.6-2.2c1.2-0.3,2.1-0.5,2.7-0.8c0.6-0.3,1-0.6,1.1-0.9c0.1-0.3,0.2-0.8,0.2-1.4   c0-0.6,0-1.1,0-1.4l1-0.3l1.8,8.3L46.7,221.6z"
   id="path102"
   style="fill:#ffffff" />
	<path
   class="st1"
   d="M53.1,233.8c-0.2-0.2-0.4-0.5-0.6-0.8c-0.3-0.3-0.5-0.5-0.7-0.7c-0.3-0.2-0.6-0.4-0.8-0.3   c-0.3,0-0.6,0.1-0.9,0.3l-10.7,6.1c-0.6,0.3-1.2,0.6-2,0.7c-0.7,0.1-1.5,0.1-2.2,0c-0.8-0.2-1.6-0.5-2.4-1   c-0.7-0.5-1.3-1.3-1.8-2.1c-0.8-1.3-1.1-2.7-0.8-4c0.3-1.3,1.1-2.3,2.4-3.1c0.5-0.3,1.1-0.5,1.8-0.5c0.6,0.1,1.1,0.4,1.4,1   c0.2,0.5,0.3,1,0.2,1.4c-0.1,0.5-0.4,0.9-0.8,1.1c-0.3,0.2-0.6,0.3-0.9,0.3c-0.3,0.1-0.6,0.1-0.9,0.1c-0.3,0-0.6,0-1,0   c-0.3,0-0.7,0-0.9,0c-0.2,0.3-0.3,0.7-0.3,1.3c0,0.5,0.2,1,0.5,1.7c0.4,0.6,0.9,1,1.3,1.3c0.5,0.2,1.1,0.3,1.6,0.2   c0.5-0.1,1.2-0.2,1.9-0.5c0.7-0.3,1.4-0.6,2.2-1.1l9.5-5.5c0.3-0.2,0.5-0.4,0.6-0.5c0.2-0.2,0.2-0.5,0.2-0.9c0-0.3-0.1-0.7-0.3-1.2   c-0.2-0.4-0.3-0.7-0.5-1l0.9-0.5l4.6,7.9L53.1,233.8z"
   id="path104"
   style="fill:#ffffff" />
	<path
   class="st1"
   d="M45.8,257.6l-5.7-7.4l0.8-0.6c0.2,0.2,0.5,0.5,0.8,0.9c0.3,0.3,0.6,0.6,0.8,0.7c0.3,0.2,0.6,0.2,0.8,0.2   c0.3-0.1,0.6-0.2,0.9-0.4l12-9.2c0.3-0.2,0.5-0.4,0.6-0.6c0.1-0.2,0.1-0.5,0-1c-0.1-0.3-0.2-0.7-0.4-1.1c-0.2-0.4-0.4-0.7-0.5-1   l0.8-0.6l5.7,7.4l-0.8,0.6c-0.2-0.2-0.4-0.5-0.7-0.8c-0.3-0.3-0.6-0.6-0.9-0.7c-0.3-0.2-0.6-0.3-0.9-0.2c-0.3,0.1-0.6,0.2-0.8,0.4   l-11.9,9.2c-0.2,0.2-0.4,0.4-0.6,0.7c-0.1,0.3-0.1,0.6-0.1,1c0.1,0.2,0.2,0.5,0.4,0.9c0.2,0.5,0.4,0.8,0.6,1L45.8,257.6z"
   id="path106"
   style="fill:#ffffff" />
	<path
   class="st1"
   d="M81.6,264.9c-0.2-0.2-0.6-0.4-1.1-0.7c-0.5-0.3-0.9-0.4-1.2-0.5c-0.4-0.1-0.9,0.1-1.5,0.5   c-0.5,0.5-1.2,1-1.9,1.8l-10.5,11l-0.9-0.9l2.6-21l-7.4,7.7c-0.8,0.9-1.4,1.6-1.8,2.2c-0.3,0.6-0.5,1.1-0.4,1.5   c0,0.4,0.2,0.8,0.6,1.4c0.4,0.6,0.6,1,0.8,1.2l-0.7,0.7l-6.2-5.9l0.7-0.7c0.2,0.2,0.6,0.4,1.1,0.7c0.6,0.3,1,0.5,1.2,0.5   c0.5,0,0.9-0.1,1.4-0.5c0.5-0.3,1.2-0.9,2.1-1.9l7.1-7.4c0.3-0.3,0.5-0.7,0.7-1.1c0.2-0.4,0.3-0.8,0.2-1.2c0-0.5-0.2-1-0.5-1.6   c-0.3-0.6-0.5-1-0.8-1.3l0.7-0.7l4.3,4.1l-2.4,19.5l6.8-7.1c0.8-0.9,1.4-1.6,1.8-2.2c0.3-0.6,0.4-1.1,0.4-1.4   c-0.1-0.3-0.3-0.8-0.6-1.3c-0.3-0.5-0.6-0.9-0.8-1.2l0.7-0.7l6.1,5.8L81.6,264.9z"
   id="path108"
   style="fill:#ffffff" />
	<path
   class="st1"
   d="M93.3,286.3c-0.2-0.1-0.5-0.2-0.9-0.4c-0.4-0.2-0.7-0.3-0.9-0.3c-0.4,0-0.6,0-0.9,0.2   c-0.2,0.1-0.4,0.4-0.7,0.7l-0.9,1.3c-0.6,1-1.1,1.6-1.3,2c-0.2,0.4-0.4,0.6-0.5,0.8c-1.4-0.2-2.8-0.6-4-1c-1.2-0.5-2.4-1-3.4-1.7   c-1.1-0.8-2-1.7-2.7-2.8c-0.8-1.1-1.2-2.3-1.5-3.5c-0.2-1.4-0.2-2.7,0.1-4.1c0.3-1.4,0.8-2.8,1.8-4.1c0.8-1.3,1.9-2.4,3.1-3.2   c1.2-0.8,2.5-1.4,3.8-1.7c1.3-0.3,2.7-0.3,4,0c1.4,0.3,2.7,0.8,3.9,1.6c1,0.7,1.8,1.4,2.3,2.1c0.5,0.7,1,1.4,1.3,2.1l1-0.5l1,0.7   l-4,6.1l-1-0.7c0.3-0.8,0.5-1.5,0.6-2.4c0.2-0.8,0.3-1.6,0.2-2.4c-0.1-0.8-0.3-1.5-0.6-2.2c-0.3-0.7-1-1.3-1.7-1.8   c-0.9-0.6-1.8-0.9-2.7-1c-0.9-0.1-1.9,0-2.8,0.4c-1,0.3-1.9,0.9-2.8,1.8c-1,0.8-1.9,1.8-2.7,3c-0.7,1.1-1.3,2.2-1.7,3.4   c-0.4,1.1-0.6,2.3-0.6,3.3c0,1,0.3,2.1,0.7,3c0.5,0.9,1.2,1.7,2.1,2.3c0.7,0.5,1.4,0.8,2.2,1c0.7,0.2,1.3,0.3,1.7,0.2   c0.4-0.4,0.7-0.7,1-1.2c0.3-0.4,0.6-0.8,0.7-1.1l0.6-1c0.3-0.3,0.4-0.7,0.5-1c0.1-0.3,0.1-0.7-0.2-1c-0.2-0.3-0.5-0.7-0.9-1   c-0.5-0.4-0.8-0.7-1-0.8l0.6-1l7.6,5.1L93.3,286.3z"
   id="path110"
   style="fill:#ffffff" />
	<path
   class="st1"
   d="M145.5,289.7c-0.3,0-0.6,0.1-1.2,0.2c-0.5,0.1-1,0.2-1.3,0.5c-0.3,0.2-0.6,0.7-0.7,1.4   c-0.1,0.7-0.2,1.5-0.2,2.6v9c0,1.1-0.2,2.1-0.7,3c-0.5,0.9-1.1,1.6-1.9,2.1c-0.7,0.5-1.6,0.9-2.5,1.1c-0.8,0.3-1.6,0.4-2.4,0.4   c-1.2,0-2.4-0.2-3.3-0.5c-1-0.3-1.8-0.8-2.5-1.3c-0.6-0.6-1.1-1.2-1.4-1.9c-0.4-0.7-0.5-1.5-0.5-2.2v-12.2c0-0.4-0.1-0.7-0.2-0.9   c-0.1-0.2-0.3-0.5-0.7-0.6c-0.2-0.2-0.5-0.3-0.9-0.4c-0.4-0.1-0.7-0.1-0.9-0.1v-1.1h8.6v1.1c-0.3,0-0.6,0-1,0.1   c-0.4,0.1-0.7,0.2-0.9,0.2c-0.4,0.1-0.6,0.3-0.7,0.6c-0.1,0.3-0.2,0.6-0.2,1V303c0,0.5,0.1,1.1,0.2,1.7c0.1,0.6,0.4,1.2,0.7,1.7   c0.4,0.5,0.9,1,1.6,1.3c0.7,0.3,1.5,0.6,2.7,0.6c1.1,0,2-0.2,2.7-0.6c0.7-0.3,1.3-0.7,1.7-1.3c0.4-0.5,0.7-1.1,0.9-1.7   c0.1-0.6,0.2-1.1,0.2-1.7v-8.5c0-1.1-0.1-2-0.2-2.7c-0.2-0.7-0.4-1.1-0.7-1.4c-0.4-0.2-0.9-0.4-1.4-0.6c-0.6-0.1-1.1-0.2-1.4-0.2   v-1.1h8.5V289.7z"
   id="path112"
   style="fill:#ffffff" />
	<path
   class="st1"
   d="M169.6,279.2c-0.2,0.2-0.6,0.4-1,0.7c-0.5,0.4-0.8,0.7-1,0.9c-0.2,0.3-0.2,0.9-0.1,1.5   c0.1,0.7,0.4,1.5,0.8,2.5l6.1,13.9l-1.2,0.6L155,288.8l4.3,9.8c0.5,1.1,0.9,1.9,1.3,2.4c0.4,0.6,0.8,0.9,1.2,1   c0.3,0.1,0.8,0.1,1.5,0c0.7-0.1,1.2-0.2,1.4-0.3l0.4,1l-7.8,3.4l-0.4-1c0.3-0.1,0.6-0.4,1.1-0.8c0.5-0.4,0.8-0.7,0.9-0.8   c0.2-0.4,0.2-0.9,0.1-1.5c-0.1-0.6-0.4-1.4-1-2.7l-4.1-9.4c-0.2-0.4-0.4-0.8-0.7-1.1c-0.3-0.3-0.6-0.6-1-0.7   c-0.4-0.1-1-0.2-1.6-0.2c-0.7,0.1-1.2,0.1-1.5,0.3l-0.4-1l5.4-2.4l17,9.8l-3.9-9.1c-0.5-1.1-0.9-1.9-1.3-2.5   c-0.4-0.6-0.8-0.9-1.1-0.9c-0.3-0.1-0.8-0.1-1.4,0c-0.6,0.1-1.1,0.2-1.4,0.3l-0.4-1l7.7-3.3L169.6,279.2z"
   id="path114"
   style="fill:#ffffff" />
	<path
   class="st1"
   d="M190.4,291.2l-8.4,4.1l-0.5-0.9c0.2-0.1,0.6-0.3,1-0.6c0.4-0.3,0.7-0.5,0.8-0.6c0.2-0.3,0.4-0.6,0.4-0.8   c0-0.3,0-0.6-0.2-0.9l-6.7-13.5c-0.1-0.3-0.3-0.6-0.5-0.7c-0.2-0.1-0.5-0.2-1-0.2c-0.3,0-0.7,0.1-1.1,0.2c-0.5,0.1-0.8,0.2-1.1,0.3   l-0.5-0.9l8.4-4.1l0.5,0.9c-0.3,0.1-0.6,0.3-0.9,0.6c-0.3,0.2-0.7,0.5-0.9,0.7c-0.3,0.2-0.4,0.6-0.4,0.9c0,0.2,0.1,0.5,0.2,0.8   l6.6,13.5c0.1,0.3,0.3,0.5,0.6,0.7c0.2,0.2,0.5,0.2,0.9,0.2c0.2,0,0.6-0.1,1-0.2c0.4-0.1,0.8-0.2,1.1-0.3L190.4,291.2z"
   id="path116"
   style="fill:#ffffff" />
	<path
   class="st1"
   d="M200.6,258.5c-0.2,0.2-0.4,0.5-0.6,0.7c-0.2,0.3-0.3,0.6-0.4,0.9c-0.1,0.4-0.2,0.7-0.1,1.1   c0.1,0.3,0.1,0.8,0.2,1.2c0.5,1.7,1.2,4.2,2.2,7.5c1.1,3.4,2.1,6.9,3.2,10.6l-0.9,0.7c-3.5-2-6.8-4-10-6c-3.2-1.9-5.4-3.2-6.5-3.9   c-0.3-0.1-0.6-0.3-0.9-0.3c-0.3,0-0.6,0-1,0c-0.3,0.1-0.6,0.1-0.9,0.3c-0.3,0.1-0.6,0.3-0.8,0.4l-0.7-0.8l6.7-5.3l0.7,0.8   c-0.6,0.5-1,1-1.3,1.3c-0.3,0.4-0.4,0.7-0.2,0.9c0.1,0.1,0.2,0.2,0.3,0.3c0.1,0.1,0.2,0.2,0.3,0.2c0.9,0.5,2.3,1.3,4.3,2.5   c2,1.3,4.8,2.9,8.5,5.1c-0.6-1.9-1.2-4.1-2-6.6c-0.8-2.5-1.4-4.2-1.7-5.2c-0.3-0.9-0.5-1.5-0.7-1.8c-0.2-0.3-0.3-0.6-0.5-0.7   c-0.1-0.2-0.4-0.3-0.6-0.2c-0.3,0-0.5,0.1-0.9,0.2c-0.3,0.1-0.6,0.3-1,0.5c-0.3,0.2-0.5,0.3-0.8,0.5l-0.7-0.8l6.1-4.8L200.6,258.5z   "
   id="path118"
   style="fill:#ffffff" />
	<path
   class="st1"
   d="M223.8,251.8l4.4,4.2l-11.1,13.2l-0.8-0.6c0.2-0.2,0.4-0.6,0.7-1c0.2-0.4,0.4-0.7,0.4-0.9   c0.1-0.3,0.1-0.6,0-0.8c-0.1-0.3-0.3-0.5-0.6-0.7l-11.5-9.6c-0.2-0.2-0.5-0.3-0.8-0.4c-0.2-0.1-0.5-0.1-0.9,0.1   c-0.3,0.1-0.5,0.3-0.9,0.6c-0.4,0.3-0.6,0.5-0.9,0.7l-0.8-0.6l10.3-12.4l3.8,3.2l-0.7,0.8c-0.7-0.3-1.6-0.5-2.6-0.5   c-1.1,0-1.8,0.2-2.3,0.5c-0.2,0.2-0.5,0.5-0.8,0.7c-0.3,0.3-0.6,0.7-1,1.1l-2,2.5l6.3,5.3l1.5-1.8c0.5-0.6,0.8-1,0.9-1.4   c0.1-0.4,0.1-0.8,0-1.1c-0.1-0.4-0.2-0.7-0.5-1.2c-0.3-0.4-0.5-0.8-0.8-1.1l0.7-0.8l6.2,5.2l-0.7,0.8c-0.4-0.2-0.9-0.5-1.4-0.7   c-0.5-0.2-0.9-0.3-1.2-0.3c-0.5,0-0.9,0.1-1.2,0.3c-0.4,0.2-0.7,0.6-1.1,1.1l-1.5,1.8l4.8,4c0.5,0.4,0.8,0.7,1.2,0.9   c0.3,0.2,0.7,0.2,1,0.2c0.3-0.1,0.6-0.3,1-0.6c0.3-0.3,0.7-0.8,1.2-1.4c0.2-0.2,0.5-0.5,0.8-1c0.4-0.3,0.6-0.7,0.8-1   c0.2-0.3,0.4-0.7,0.6-1.1c0.2-0.3,0.2-0.6,0.2-0.9c0-0.7-0.3-1.5-0.7-2.5c-0.4-1-0.8-1.6-1-2L223.8,251.8z"
   id="path120"
   style="fill:#ffffff" />
	<path
   class="st1"
   d="M241,232.4l-2.7,4.8c-2.3,0.2-4.3,0.4-6,0.6c-1.7,0.2-3.5,0.4-5.4,0.7l-1,1.9l5.8,3.1c0.3,0.2,0.6,0.3,0.8,0.3   c0.3,0,0.6-0.1,0.9-0.3c0.2-0.1,0.3-0.4,0.6-0.7c0.3-0.3,0.5-0.7,0.6-1l0.9,0.5l-4.2,7.7l-0.9-0.5c0.1-0.2,0.2-0.5,0.4-1   c0.2-0.4,0.2-0.7,0.3-0.8c0-0.3,0-0.6-0.2-0.8c-0.2-0.2-0.4-0.4-0.7-0.6l-13.3-7.2c-0.3-0.1-0.6-0.2-0.9-0.3   c-0.3-0.1-0.6,0.1-0.9,0.3c-0.2,0.2-0.4,0.5-0.7,0.8c-0.3,0.3-0.5,0.6-0.6,0.8l-0.9-0.5l4.6-8.5c0.4-0.8,0.9-1.5,1.4-2   c0.5-0.6,1.1-1.1,1.8-1.5c0.6-0.3,1.3-0.5,2.1-0.5c0.7,0,1.5,0.2,2.2,0.6c0.7,0.4,1.3,0.9,1.7,1.4c0.4,0.5,0.7,1,0.9,1.7   c0.2,0.6,0.2,1.2,0.2,1.9c-0.1,0.6-0.2,1.4-0.3,2.1c1.7-0.2,3.1-0.5,4.3-0.6c1.1-0.2,2.5-0.4,4.2-0.6c0.7-0.1,1.3-0.2,1.7-0.4   c0.5-0.2,0.8-0.4,1.1-0.6c0.3-0.2,0.5-0.4,0.7-0.7c0.2-0.3,0.4-0.6,0.5-0.7L241,232.4z M223.7,231.8c-1.1-0.6-2.2-0.8-3.2-0.5   c-1,0.3-1.8,1-2.4,2.2l-1.2,2.2l7.9,4.2l0.9-1.7c0.6-1.2,0.8-2.4,0.5-3.6C225.9,233.4,225,232.5,223.7,231.8z"
   id="path122"
   style="fill:#ffffff" />
	<path
   class="st1"
   d="M235.7,214.7c0.6-0.3,1.2-0.5,1.8-0.5c0.6-0.1,1.3,0,2,0.2c1.8,0.4,3.1,1.5,3.9,3.1c0.8,1.6,1,3.4,0.4,5.3   c-0.2,0.8-0.6,1.8-1.1,2.6c-0.5,0.9-1.1,1.5-1.6,2l0.9,0.9l-0.3,1.2l-6.9-1.6l0.3-1.1c0.9,0,1.7-0.1,2.5-0.3   c0.8-0.1,1.5-0.3,2.2-0.7c0.7-0.4,1.3-0.9,1.8-1.4c0.5-0.6,0.8-1.3,1.1-2.2c0.2-0.6,0.2-1.3,0.2-1.8c0-0.6-0.2-1-0.4-1.4   c-0.2-0.4-0.6-0.7-0.9-1c-0.4-0.2-0.9-0.5-1.4-0.6c-0.8-0.2-1.6-0.2-2.4,0.1c-0.8,0.3-1.5,0.9-2.1,1.7c-0.4,0.6-0.9,1.2-1.4,1.9   c-0.5,0.7-1,1.3-1.4,1.9c-0.8,1-1.7,1.6-2.7,2.1c-1,0.4-2.2,0.5-3.5,0.1c-0.8-0.2-1.4-0.6-2-1.1c-0.6-0.5-1-1-1.4-1.8   c-0.4-0.7-0.6-1.4-0.7-2.2c-0.1-0.9,0-1.7,0.2-2.5c0.3-0.9,0.6-1.7,1.1-2.4c0.5-0.7,1-1.3,1.5-1.7l-0.9-0.9l0.3-1.2l6.7,1.6   l-0.3,1.2c-0.8,0-1.6,0-2.4,0.1c-0.8,0.1-1.5,0.2-2.2,0.5c-0.7,0.3-1.2,0.7-1.7,1.2c-0.5,0.5-0.8,1.1-1.1,2   c-0.2,0.9-0.1,1.8,0.3,2.5c0.4,0.8,1.1,1.3,1.9,1.5c0.9,0.2,1.6,0.2,2.3-0.1c0.7-0.2,1.3-0.7,1.9-1.4c0.5-0.6,1-1.2,1.4-1.8   c0.4-0.6,0.8-1.2,1.3-1.7c0.4-0.5,0.8-1,1.2-1.4C234.7,215.3,235.2,214.9,235.7,214.7z"
   id="path124"
   style="fill:#ffffff" />
	<path
   class="st1"
   d="M248,200.9l-1.3,9.3l-1-0.1c0-0.3,0.1-0.7,0.1-1.2c0.1-0.5,0-0.8,0-1.1c-0.1-0.3-0.2-0.6-0.4-0.7   c-0.2-0.2-0.5-0.3-0.9-0.3l-14.9-2c-0.3,0-0.6,0-0.8,0c-0.2,0.1-0.5,0.3-0.7,0.7c-0.1,0.3-0.3,0.6-0.5,1c-0.2,0.4-0.3,0.8-0.4,1.1   l-1-0.1l1.3-9.3l1,0.1c0,0.3,0,0.6,0,1.1c0,0.5,0,0.8,0.1,1.1c0.1,0.3,0.2,0.6,0.5,0.8c0.2,0.2,0.5,0.3,0.8,0.3l14.9,2.1   c0.3,0.1,0.6,0,0.8-0.1c0.3-0.1,0.5-0.3,0.7-0.7c0.1-0.2,0.3-0.5,0.4-0.9c0.2-0.5,0.3-0.9,0.3-1.2L248,200.9z"
   id="path126"
   style="fill:#ffffff" />
	<path
   class="st1"
   d="M234.8,176.3l-0.1,1c-0.4,0.1-0.8,0.2-1.3,0.5c-0.5,0.2-1,0.5-1.4,0.7c-0.4,0.3-0.8,0.6-1.2,1   c-0.4,0.3-0.6,0.6-0.6,1c-0.1,0.3-0.1,0.7-0.2,1.1c0,0.5-0.1,0.9-0.1,1.3l-0.1,0.9l16.6,0.6c0.3,0,0.6,0,0.9-0.2   c0.3-0.1,0.5-0.4,0.6-0.7c0.1-0.2,0.2-0.5,0.4-1.1c0.1-0.6,0.2-1,0.2-1.3l1,0l-0.4,9.8l-1-0.1c0-0.2-0.1-0.7-0.1-1.3   c0-0.6-0.1-0.9-0.2-1.2c-0.1-0.3-0.3-0.6-0.5-0.7c-0.2-0.2-0.6-0.2-1-0.3l-16.7-0.6l0,0.9c0,0.3,0,0.6,0,1.1c0,0.4,0,0.9,0,1.3   c0,0.3,0.2,0.7,0.5,1.1c0.3,0.3,0.7,0.7,1.1,1c0.4,0.3,0.9,0.6,1.4,0.9c0.5,0.2,0.9,0.4,1.2,0.5l-0.1,1l-5.6-0.2l0.7-18.1   L234.8,176.3z"
   id="path128"
   style="fill:#ffffff" />
	<path
   class="st1"
   d="M230.5,153.6c0,0.1,0.1,0.4,0.2,0.8c0.2,0.3,0.3,0.6,0.4,0.8c0.2,0.4,0.4,0.6,0.5,0.8c0.1,0.1,0.5,0.4,1,0.8   c1.1,0.8,2.2,1.5,3.2,2.2c1.1,0.6,2.5,1.4,4.1,2.4c0.6,0.4,1.1,0.7,1.5,0.7c0.4,0.2,0.9,0.2,1.6,0.2l4,0.1c0.4,0,0.7-0.1,1-0.2   c0.2-0.1,0.4-0.4,0.6-0.7c0.1-0.2,0.2-0.6,0.3-1.1c0.1-0.5,0.2-0.9,0.2-1.2h1.1l-0.2,9.7l-1-0.1c0-0.3-0.1-0.6-0.1-1.2   c0-0.5-0.1-0.9-0.2-1.1c-0.1-0.4-0.3-0.6-0.6-0.7c-0.3-0.2-0.6-0.2-1-0.2l-5.1-0.1c-0.2-0.1-0.4,0.1-0.9,0.2   c-0.4,0.2-0.9,0.4-1.4,0.6c-1.2,0.6-2.4,1.2-3.7,1.9c-1.3,0.7-2.5,1.3-3.4,1.8c-0.6,0.3-1,0.5-1.3,0.8c-0.3,0.2-0.5,0.5-0.8,0.8   c-0.1,0.2-0.3,0.5-0.3,0.8c-0.1,0.3-0.2,0.6-0.2,0.9h-1l0.1-8.9h1.1c0,1,0,1.7,0.2,2.2c0.1,0.4,0.3,0.6,0.5,0.6   c0.1,0,0.2,0,0.3-0.1c0.2-0.1,0.4-0.2,0.6-0.2c0.3-0.1,0.6-0.3,0.9-0.5c0.3-0.2,0.7-0.3,1-0.5c0.9-0.5,1.8-0.9,2.6-1.4   c0.9-0.4,2-1.1,3.4-1.8c-2.4-1.5-4.3-2.8-5.7-3.6c-1.3-0.8-2.2-1.2-2.4-1.2c-0.2,0-0.4,0.1-0.6,0.2c-0.1,0.1-0.2,0.3-0.3,0.6   c-0.1,0.3-0.2,0.6-0.2,0.9c0,0.3,0,0.7-0.1,0.9h-1.1l0.2-7.2H230.5z"
   id="path130"
   style="fill:#ffffff" />
	<g
   id="g138"
   style="fill:#ffffff">
		<path
   class="st1"
   d="M127.4,239.4c-0.8,0-1.4,0.3-2,1c-0.6,0.6-0.9,1.4-0.9,2.4c0,0.9,0.3,1.6,0.8,2.2c0.5,0.6,1.2,0.8,2,0.8    c0.8,0,1.4-0.3,2-0.8c0.5-0.6,0.8-1.4,0.8-2.3c0-1-0.2-1.8-0.8-2.3C128.8,239.7,128.1,239.4,127.4,239.4z"
   id="path132"
   style="fill:#ffffff" />
		<path
   class="st1"
   d="M140.5,239.4c-0.7,0-1.4,0.3-1.9,1c-0.6,0.8-0.9,2.4-0.9,4.8c0,2.3,0.3,3.8,0.8,4.6c0.6,0.8,1.2,1.2,2,1.2    c0.7,0,1.4-0.4,2-1.2c0.5-0.8,0.8-2.3,0.8-4.6c0-2.3-0.3-3.9-0.8-4.6C142,239.8,141.3,239.4,140.5,239.4z"
   id="path134"
   style="fill:#ffffff" />
		<path
   class="st1"
   d="M218.4,102.5c-55.3,0-110.7,0-166,0c-0.2,0-0.2,0.3-0.3,0.5c-0.2,21.3,0.1,43.3,0,64.1    c-0.2,21,2.9,40.1,9.7,55c6.7,14.8,17.7,25.5,30.2,34.4c12.7,9,28.6,13.9,43.3,21.4c14.6-7.6,30.5-12.4,43.1-21.6    c12.5-9,23.8-19.4,30.4-34.4c6.6-15,9.6-33.5,9.6-55.2C218.5,145.8,218.7,123.6,218.4,102.5z M90.4,196.7    c11.3-5.9,22.6-12.3,31.4-20.8c-5.9,1.4-10.5,1.6-15.4,1.5c0.8-1.3,2.1-2.1,3.2-3.1c7.4-7,15.8-13.6,19.8-24.2    c-2.7,0.9-6.2,1.7-9.9,1.7c7.3-9.3,13-20.2,16-33.7c0.1,0,0.3,0,0.4,0c3,13.5,8.8,24.3,16,33.7c-3.2-0.2-6-0.3-9.7-1.8    c0.2,1.6,1,3.1,1.7,4.4c3.6,6.6,9.4,11.8,14.7,16.9c2.2,2,4.5,3.8,6.4,6.1c-6,0.5-8.7,0.1-15.2-1.7c2.1,2.5,4.9,4.4,7.5,6.4    c7,5.7,15.4,10,23.9,14.5c0.7,0.3,1.7,0.6,2,1.5c-7,1-14.8,0.5-22.4-2c-9.3-3.2-18-3.4-24.5,2.7c-7.2-5.8-14.4-5.9-26-2.8    c-6.6,2.1-15.2,3-22.2,2.1C88.6,197.3,89.7,197.1,90.4,196.7z M116.1,252.1h-1.7v-11c-0.4,0.5-1,0.8-1.7,1.1    c-0.6,0.4-1.2,0.7-1.8,1v-1.6c1-0.5,1.8-1.1,2.5-1.7c0.7-0.7,1.2-1.3,1.5-1.9h1.1V252.1z M131.5,249.1c-0.4,1.1-1,1.9-1.8,2.4    c-0.8,0.6-1.7,0.9-2.7,0.9c-1.1,0-2-0.3-2.7-0.9c-0.7-0.6-1.1-1.4-1.3-2.6l1.6-0.2c0.2,0.8,0.5,1.4,0.9,1.7    c0.4,0.4,0.9,0.5,1.5,0.5c0.5,0,1-0.1,1.4-0.4c0.4-0.2,0.7-0.6,1-1c0.3-0.4,0.5-1,0.6-1.6c0.2-0.7,0.3-1.4,0.3-2.1    c0-0.1,0-0.2,0-0.4c-0.3,0.6-0.8,1.1-1.4,1.4c-0.6,0.3-1.3,0.5-1.9,0.5c-1.2,0-2.2-0.5-3-1.3c-0.8-0.9-1.3-2-1.3-3.3    c0-1.4,0.4-2.6,1.3-3.4c0.9-0.9,1.9-1.3,3.1-1.3c1,0,1.8,0.2,2.6,0.7c0.7,0.5,1.3,1.2,1.8,2.2c0.3,0.9,0.6,2.2,0.6,3.9    C132,246.6,131.8,248,131.5,249.1z M144.6,249.2c-0.3,1-0.8,1.8-1.5,2.3c-0.7,0.6-1.5,0.9-2.6,0.9c-1.4,0-2.4-0.5-3.2-1.5    c-0.9-1.1-1.4-3.1-1.4-5.7c0-1.7,0.2-3,0.5-4c0.4-1,0.9-1.8,1.5-2.3c0.7-0.6,1.5-0.9,2.6-0.9c0.7,0,1.4,0.1,2,0.4    c0.6,0.3,1,0.7,1.4,1.3c0.4,0.6,0.6,1.3,0.9,2.1c0.2,0.8,0.3,1.9,0.3,3.3C145.1,246.8,144.9,248.2,144.6,249.2z M158.2,252.1h-9.3    c0-0.4,0.1-0.9,0.2-1.2c0.2-0.6,0.6-1.3,1.2-1.9c0.5-0.6,1.3-1.3,2.2-2.2c1.5-1.3,2.5-2.2,3.1-3c0.5-0.7,0.8-1.4,0.8-2.1    c0-0.7-0.3-1.3-0.8-1.7c-0.5-0.5-1.1-0.7-1.9-0.7c-0.8,0-1.5,0.3-2,0.8c-0.5,0.5-0.7,1.2-0.7,2l-1.8-0.2c0.2-1.3,0.6-2.3,1.4-3    c0.8-0.7,1.9-1,3.2-1c1.4,0,2.4,0.3,3.2,1.1c0.8,0.8,1.2,1.7,1.2,2.8c0,0.5-0.1,1.1-0.3,1.7c-0.2,0.5-0.6,1.1-1.1,1.7    c-0.5,0.6-1.4,1.4-2.7,2.4c-1,0.9-1.7,1.5-2,1.8c-0.3,0.3-0.5,0.6-0.7,1h6.9V252.1z M144,212.9l0.4,3.7h-16.1l0.5-3.7H78.3    l6.3-7.7c5.3-0.3,15.7-1.7,24.5-4.9c17.2-6.4,27.6,2.4,27.6,2.4c8.2-6.9,18.5-5.5,28.1-1.9c9,3.3,22.7,4.3,22.7,4.3l5.9,7.9H144z"
   id="path136"
   style="fill:#ffffff" />
	</g>
</g>
<g
   id="g142">
</g>
<g
   id="g144">
</g>
<g
   id="g146">
</g>
<g
   id="g148">
</g>
<g
   id="g150">
</g>
<g
   id="g152">
</g>
</svg>
